<?xml version="1.0" encoding="UTF-8" standalone="no"?>
<!-- Created with Inkscape (http://www.inkscape.org/) -->

<svg
   width="186.5873mm"
   height="43.117985mm"
   viewBox="0 0 186.5873 43.117985"
   version="1.1"
   id="svg1"
   xml:space="preserve"
   xmlns:inkscape="http://www.inkscape.org/namespaces/inkscape"
   xmlns:sodipodi="http://sodipodi.sourceforge.net/DTD/sodipodi-0.dtd"
   xmlns="http://www.w3.org/2000/svg"
   xmlns:svg="http://www.w3.org/2000/svg"><sodipodi:namedview
     id="namedview1"
     pagecolor="#ffffff"
     bordercolor="#000000"
     borderopacity="0.25"
     inkscape:showpageshadow="2"
     inkscape:pageopacity="0.0"
     inkscape:pagecheckerboard="0"
     inkscape:deskcolor="#d1d1d1"
     inkscape:document-units="mm" /><defs
     id="defs1" /><g
     inkscape:label="Layer 1"
     inkscape:groupmode="layer"
     id="layer1"
     transform="translate(-10.875667,-62.820276)"><g
       id="g47"
       transform="translate(0.47714273,28.757284)"
       style="fill:#3ebe61;fill-opacity:1"><rect
         style="fill:#3ebe61;fill-opacity:1;stroke-width:0.157104"
         id="rect34"
         width="186.5873"
         height="1.4753339"
         x="10.398525"
         y="63.953926"
         rx="0"
         ry="0" /><g
         id="g46"
         transform="matrix(1,0,0,1.0094458,16.633359,-24.092096)"
         style="fill:#3ebe61;fill-opacity:1"><path
           id="path34"
           style="font-size:37.6413px;line-height:0.7;font-family:'FONTSPRING DEMO - Proxima Nova Extrabold';-inkscape-font-specification:'FONTSPRING DEMO - Proxima Nova Extrabold, ';fill:#3ebe61;fill-opacity:1;stroke-width:0.54892"
           d="M 0.21597533,81.398372 V 73.506153 H 5.8732305 c 5.2381995,0 8.1017485,-3.457212 8.1017485,-7.647771 0,-4.225481 -2.863549,-7.752535 -8.1017485,-7.752535 H -5.7904932 V 81.398372 Z M 7.8637457,65.823461 c 0,1.571459 -1.1873247,2.584178 -2.7937058,2.584178 H 0.21597533 V 63.16944 H 5.0700399 c 1.6063811,0 2.7937058,1.04764 2.7937058,2.654021 z M 29.871831,81.482275 32.005477,76.160173 H 22.670376 V 58.105847 H 16.663908 V 81.398372 Z M 97.633488,81.39837 V 58.105847 h -6.006474 v 23.292525 z m 25.841772,0 V 58.105847 h -6.0414 V 71.515636 L 108.0051,58.105847 h -6.18107 v 23.292525 h 6.00646 V 67.325077 l 9.84782,14.073295 z m 4.19055,-9.428758 c 0,5.727098 3.35245,9.847814 10.82561,9.847814 7.47316,0 10.7907,-4.085795 10.7907,-9.882735 V 58.105847 h -6.11124 v 13.654239 c 0,2.758785 -1.4667,4.7493 -4.67946,4.7493 -3.24768,0 -4.71438,-1.990515 -4.71438,-4.7493 V 58.105847 h -6.11123 z m 52.24231,9.428758 V 58.105847 h -8.3462 l -4.88898,13.200262 -4.85406,-13.200262 h -8.3462 v 23.292525 h 6.00646 V 65.683775 l 5.86679,15.714597 h 2.65402 l 5.9017,-15.714597 v 15.714597 z"
           sodipodi:nodetypes="ccssscccssccsscccccccccccccccccccccccsssccsssccscccccccccccccc" /><g
           id="g45"
           transform="matrix(0.92773967,0,0,0.92773967,-5.3605268,-38.560823)"
           style="fill:#3ebe61;fill-opacity:1"><path
             style="fill:#3ebe61;fill-opacity:1;stroke-width:0.266171"
             d="M 85.372807,129.56203 V 103.66241 H 48.345949 l -1.558304,3.83698 h 7.057976 l 9.720349,22.25449 h 4.604377 V 112.48747 H 61.58353 v -5.17993 h 20.208096 v 5.24388 h -7.034463 v 17.01061 z"
             id="path35"
             sodipodi:nodetypes="ccccccccccccccc" /><path
             d="m 86.651558,111.08056 -0.06356,18.54564 h 1.602487 c 0.19661,-4.19306 7.731969,-7.61016 10.084139,0 h 3.085596 v -10.1043 l -3.564835,-7.10562 c 0,0 -0.46449,-0.72011 -0.873404,-0.97372 -0.568468,-0.35256 -1.780651,-0.32553 -1.780651,-0.32553 z m 3.786849,2.2164 6.150013,0.0222 3.210656,6.55722 -9.22476,-0.13591 z"
             style="fill:#3ebe61;fill-opacity:1;stroke-width:0.266171"
             id="path36"
             sodipodi:nodetypes="cccccccsccccccc" /><path
             style="fill:#3ebe61;fill-opacity:1;stroke-width:0.266171"
             d="m 50.26444,113.83041 -2.430089,6.65077 h 5.052026 z"
             id="path37" /><path
             style="fill:#3ebe61;fill-opacity:1;stroke-width:0.266171"
             d="m 54.909643,125.41169 -1.293099,0.0185 c 0.600469,0.28956 1.39444,1.16665 2.234709,2.37813 z"
             id="path38"
             sodipodi:nodetypes="cccc" /><path
             style="fill:#3ebe61;fill-opacity:1;stroke-width:0.266171"
             d="m 45.829704,125.32514 -1.74094,4.2506 h 2.26531 c 0.243187,-1.83866 0.973178,-2.98159 2.617232,-4.0711 z"
             id="path39"
             sodipodi:nodetypes="ccccc" /><g
             id="g43"
             style="fill:#3ebe61;fill-opacity:1"><path
               style="fill:#3ebe61;fill-opacity:1;stroke-width:0.266171"
               d="m 46.166092,109.04439 -9.858625,0.51882 9.256564,0.97552 z"
               id="path40"
               sodipodi:nodetypes="cccc" /><path
               style="fill:#3ebe61;fill-opacity:1;stroke-width:0.266171"
               d="m 44.476184,113.0953 -12.985777,0.59554 12.445446,0.87469 z"
               id="path41"
               sodipodi:nodetypes="cccc" /><path
               style="fill:#3ebe61;fill-opacity:1;stroke-width:0.266171"
               d="m 42.853052,117.2697 -0.306635,0.0147 -9.016905,0.5116 8.801478,0.77257 z"
               id="path42"
               sodipodi:nodetypes="ccccc" /><path
               style="fill:#3ebe61;fill-opacity:1;stroke-width:0.266171"
               d="m 41.328425,121.05492 -6.735515,0.43628 6.228179,0.81591 z"
               id="path43"
               sodipodi:nodetypes="cccc" /></g><path
             d="m 51.229431,126.34888 c -2.072646,-1.5e-4 -3.753008,1.67998 -3.753259,3.75274 -3.4e-5,2.07296 1.680411,3.7534 3.753259,3.75326 2.072646,-1.4e-4 3.752777,-1.68051 3.752743,-3.75326 -2.51e-4,-2.07255 -1.680298,-3.7526 -3.752743,-3.75274 z m 0,2.10271 c 0.911378,-2e-5 1.650284,0.73865 1.650545,1.65003 2.4e-5,0.91158 -0.738965,1.65057 -1.650545,1.65054 -0.91158,3e-5 -1.650569,-0.73896 -1.650545,-1.65054 2.62e-4,-0.91138 0.739167,-1.65005 1.650545,-1.65003 z"
             style="fill:#3ebe61;fill-opacity:1;stroke-width:0.266171"
             id="path44" /><path
             d="m 93.180414,126.34888 c -2.072646,-1.5e-4 -3.753008,1.67998 -3.753259,3.75274 -3.4e-5,2.07296 1.680411,3.7534 3.753259,3.75326 2.072646,-1.4e-4 3.752777,-1.68051 3.752743,-3.75326 -2.51e-4,-2.07255 -1.680298,-3.7526 -3.752743,-3.75274 z m 0,2.10271 c 0.911378,-2e-5 1.650284,0.73865 1.650545,1.65003 2.4e-5,0.91158 -0.738965,1.65057 -1.650545,1.65054 -0.91158,3e-5 -1.650569,-0.73896 -1.650545,-1.65054 2.62e-4,-0.91138 0.739167,-1.65005 1.650545,-1.65003 z"
             style="fill:#3ebe61;fill-opacity:1;stroke-width:0.266171"
             id="path45" /></g><path
           style="fill:#3ebe61;fill-opacity:1;stroke-width:0.246937"
           d="m 39.480438,57.613491 -9.622266,23.876663 v 0 l 0.0217,-0.03254"
           id="path46" /></g><text
         xml:space="preserve"
         style="font-style:normal;font-variant:normal;font-weight:normal;font-stretch:normal;font-size:10.8659px;line-height:0.7;font-family:'FONTSPRING DEMO - Proxima Nova Extrabold';-inkscape-font-specification:'FONTSPRING DEMO - Proxima Nova Extrabold, ';letter-spacing:1.9818px;word-spacing:0px;fill:#3ebe61;fill-opacity:1;stroke-width:0.170799"
         x="67.69696"
         y="83.457947"
         id="text46"
         transform="scale(1.0827358,0.92358634)"><tspan
           sodipodi:role="line"
           id="tspan46"
           style="font-style:normal;font-variant:normal;font-weight:normal;font-stretch:normal;font-family:sans-serif;-inkscape-font-specification:sans-serif;letter-spacing:1.9818px;word-spacing:0px;fill:#3ebe61;fill-opacity:1;stroke-width:0.170799"
           x="67.69696"
           y="83.457947"
           dx="0 0 0 0 0">UMZÜGE</tspan></text></g></g></svg>
